<svg width="1003" height="162" viewBox="0 0 1003 162" fill="none" xmlns="http://www.w3.org/2000/svg">
<path class="dynamic" d="M236.06 127.504L215.861 96.0691L197.535 127.504H176.399L205.829 80.4174L176 34.1355H197.539L217.738 65.439L235.929 34.1355H257.065L227.77 81.0869L257.599 127.504H236.06Z" fill="black"/>
<path class="dynamic" d="M327.761 39.8868C335.208 43.7224 340.959 49.1835 345.015 56.274C349.071 63.3645 351.103 71.5929 351.103 80.9553C351.103 90.3178 349.075 98.5036 345.015 105.501C340.955 112.503 335.204 117.921 327.761 121.753C320.315 125.588 311.688 127.504 301.876 127.504H269.237V34.1355H301.876C311.684 34.1355 320.315 36.0552 327.761 39.8868ZM323.949 103.562C329.302 98.2095 331.976 90.6777 331.976 80.9553C331.976 71.233 329.302 63.6316 323.949 58.1472C318.6 52.6629 311.018 49.9227 301.207 49.9227H287.962V111.589H301.207C311.014 111.589 318.596 108.915 323.949 103.562Z" fill="black"/>
<path class="dynamic" d="M381.198 49.2493V72.6573H412.634V87.5079H381.198V112.255H416.647V127.504H362.47V34H416.647V49.2493H381.198Z" fill="black"/>
<path class="dynamic" d="M468.838 125.141C463.687 122.945 459.612 119.77 456.622 115.633C453.623 111.496 452.088 106.61 452 100.973H471.811C472.075 104.757 473.416 107.756 475.842 109.953C478.258 112.158 481.584 113.251 485.809 113.251C490.034 113.251 493.509 112.219 495.979 110.147C498.439 108.083 499.674 105.375 499.674 102.023C499.674 99.2975 498.836 97.0483 497.169 95.2842C495.493 93.5201 493.403 92.1353 490.898 91.121C488.393 90.1066 484.935 88.9864 480.534 87.7516C474.545 85.9963 469.685 84.2499 465.945 82.5387C462.205 80.8187 458.986 78.2255 456.304 74.7503C453.614 71.275 452.273 66.6267 452.273 60.814C452.273 55.3542 453.641 50.6 456.366 46.5514C459.092 42.5029 462.92 39.3981 467.859 37.2371C472.79 35.0849 478.426 34 484.759 34C494.267 34 501.994 36.3109 507.939 40.9328C513.884 45.5547 517.156 52.0024 517.774 60.2848H497.434C497.258 57.1183 495.917 54.4986 493.403 52.4258C490.898 50.3618 487.573 49.321 483.436 49.321C479.828 49.321 476.944 50.2472 474.783 52.0995C472.622 53.9429 471.546 56.6332 471.546 60.1525C471.546 62.6134 472.357 64.6685 473.989 66.2915C475.621 67.9233 477.641 69.2375 480.067 70.2519C482.483 71.2662 485.897 72.4305 490.298 73.7536C496.287 75.5177 501.174 77.2729 504.958 79.037C508.742 80.8011 511.996 83.4384 514.731 86.9577C517.456 90.4771 518.823 95.099 518.823 100.823C518.823 105.754 517.544 110.332 514.995 114.557C512.437 118.782 508.698 122.151 503.767 124.656C498.836 127.161 492.98 128.422 486.206 128.422C479.775 128.422 473.989 127.32 468.838 125.124V125.141Z" fill="black"/>
<path class="dynamic" d="M597.529 35.3406V50.2647H572.965V127.523H554.477V50.2647H529.912V35.3406H597.529Z" fill="black"/>
<path class="dynamic" d="M629.22 35.3406V92.391C629.22 98.6447 630.852 103.417 634.107 106.715C637.361 110.014 641.939 111.664 647.84 111.664C653.741 111.664 658.451 110.014 661.706 106.715C664.96 103.417 666.592 98.6358 666.592 92.391V35.3406H685.212V92.2587C685.212 100.091 683.518 106.715 680.131 112.131C676.744 117.547 672.211 121.622 666.53 124.347C660.85 127.073 654.535 128.44 647.575 128.44C640.616 128.44 634.477 127.073 628.885 124.347C623.293 121.622 618.865 117.547 615.61 112.131C612.355 106.715 610.724 100.091 610.724 92.2587V35.3406H629.211H629.22Z" fill="black"/>
<path class="dynamic" d="M760.82 41.0122C768.167 44.7962 773.847 50.1943 777.852 57.1889C781.856 64.1835 783.858 72.3071 783.858 81.5508C783.858 90.7946 781.856 98.8741 777.852 105.781C773.847 112.696 768.167 118.041 760.82 121.825C753.472 125.609 744.952 127.505 735.267 127.505H703.046V35.3231H735.267C744.952 35.3231 753.472 37.2195 760.82 41.0034V41.0122ZM757.053 103.875C762.337 98.5919 764.974 91.1562 764.974 81.5596C764.974 71.963 762.337 64.4569 757.053 59.0411C751.77 53.6254 744.29 50.9176 734.605 50.9176H721.533V111.796H734.605C744.29 111.796 751.77 109.159 757.053 103.875Z" fill="black"/>
<path class="dynamic" d="M816.221 35.3406V127.523H797.733V35.3406H816.221Z" fill="black"/>
<path class="dynamic" d="M853.461 122.363C846.238 118.314 840.522 112.704 836.297 105.525C832.072 98.3536 829.955 90.23 829.955 81.1626C829.955 72.0952 832.072 64.1039 836.297 56.9329C840.522 49.762 846.246 44.1434 853.461 40.0948C860.677 36.0462 868.606 34.0175 877.232 34.0175C885.859 34.0175 893.894 36.0462 901.074 40.0948C908.245 44.1434 913.925 49.7531 918.106 56.9329C922.287 64.1128 924.378 72.1834 924.378 81.1626C924.378 90.1418 922.287 98.3536 918.106 105.525C913.925 112.704 908.219 118.314 901.003 122.363C893.78 126.411 885.859 128.44 877.232 128.44C868.606 128.44 860.677 126.42 853.461 122.363ZM891.892 108.171C896.117 105.666 899.416 102.076 901.797 97.4098C904.17 92.7438 905.361 87.3281 905.361 81.1626C905.361 74.9971 904.17 69.6079 901.797 64.986C899.416 60.3641 896.117 56.8183 891.892 54.3574C887.667 51.8965 882.78 50.6616 877.232 50.6616C871.684 50.6616 866.78 51.8965 862.511 54.3574C858.242 56.8271 854.917 60.3641 852.544 64.986C850.171 69.6079 848.981 75.006 848.981 81.1626C848.981 87.3192 850.171 92.7438 852.544 97.4098C854.917 102.076 858.242 105.666 862.511 108.171C866.78 110.685 871.693 111.937 877.232 111.937C882.772 111.937 887.667 110.685 891.892 108.171Z" fill="black"/>
<path class="dynamic" d="M952.575 125.141C947.424 122.945 943.349 119.77 940.359 115.633C937.36 111.496 935.826 106.61 935.737 100.973H955.548C955.813 104.757 957.153 107.756 959.579 109.953C961.996 112.158 965.321 113.251 969.546 113.251C973.771 113.251 977.246 112.219 979.716 110.147C982.177 108.083 983.412 105.375 983.412 102.023C983.412 99.2975 982.574 97.0483 980.907 95.2842C979.231 93.5201 977.14 92.1353 974.635 91.121C972.13 90.1066 968.673 88.9864 964.271 87.7516C958.282 85.9963 953.422 84.2499 949.682 82.5387C945.943 80.8187 942.723 78.2255 940.042 74.7503C937.351 71.275 936.011 66.6267 936.011 60.814C936.011 55.3542 937.378 50.6 940.103 46.5514C942.829 42.5029 946.657 39.3981 951.596 37.2371C956.527 35.0849 962.163 34 968.496 34C978.005 34 985.731 36.3109 991.676 40.9328C997.621 45.5547 1000.89 52.0024 1001.51 60.2848H981.171C980.995 57.1183 979.654 54.4986 977.14 52.4258C974.635 50.3618 971.31 49.321 967.173 49.321C963.566 49.321 960.681 50.2472 958.52 52.0995C956.359 53.9429 955.283 56.6332 955.283 60.1525C955.283 62.6134 956.095 64.6685 957.727 66.2915C959.358 67.9233 961.378 69.2375 963.804 70.2519C966.221 71.2662 969.634 72.4305 974.036 73.7536C980.025 75.5177 984.911 77.2729 988.695 79.037C992.479 80.8011 995.734 83.4384 998.468 86.9577C1001.19 90.4771 1002.56 95.099 1002.56 100.823C1002.56 105.754 1001.28 110.332 998.733 114.557C996.175 118.782 992.435 122.151 987.504 124.656C982.574 127.161 976.717 128.422 969.943 128.422C963.513 128.422 957.727 127.32 952.575 125.124V125.141Z" fill="black"/>
<path class="dynamic" d="M84.2084 0.0823472C39.7417 -1.91089 2.0714 32.5238 0.0820357 76.9982C-1.90734 121.469 32.5273 159.135 76.9979 161.125C121.468 163.122 159.135 128.687 161.132 84.2087C163.121 39.742 128.687 2.07559 84.2084 0.0823472ZM139.783 57.0542C138.87 62.9952 133.436 66.2076 125.188 64.9304C122.08 64.4582 117.323 62.763 114.184 61.5438C111.297 60.4137 104.969 57.3135 100.375 57.3135C94.3178 57.3135 90.5984 59.3145 87.8078 62.9681L88.013 63.4945C87.9046 63.5332 89.6385 62.5772 91.0125 62.2018C93.358 61.5632 94.5539 61.5748 94.8829 61.6986C95.239 61.8302 95.4054 62.2095 95.3048 62.5772C95.0764 63.4093 95.0532 64.315 95.0416 65.2555C95.0183 66.9159 94.8674 68.3944 94.6003 70.1438C94.3526 71.75 93.8843 73.333 93.3463 74.6295C92.7271 76.1467 91.9259 77.0214 91.6047 79.1192C91.268 81.3021 92.0691 83.4037 93.4818 84.9518C94.8597 86.4651 96.64 87.1347 99.388 87.5605C107.686 88.8338 115.644 86.7748 122.641 87.8546C134.14 89.6272 140.139 97.577 138.417 108.782C135.41 128.281 106.366 149.448 83.5388 145.93C71.8774 144.13 66.2383 135.762 67.8484 125.32C68.8934 118.562 72.0245 114.583 75.5581 108.654C80.3032 100.696 81.7004 94.5465 79.5369 86.8754L78.8557 87.1115C78.8557 87.1115 78.9021 89.1628 78.3216 91.7134C77.7023 94.4342 76.6031 95.3012 76.6031 95.3012C74.8266 90.3974 70.6157 86.0355 63.9354 86.0355C56.1211 86.0355 49.0848 91.3224 47.6605 100.604C46.4181 108.642 39.9739 116.143 31.1069 114.777C20.2157 113.097 13.2955 99.3341 15.1494 87.2624C16.7904 76.6228 24.4576 71.0843 31.4901 72.168C36.6919 72.9692 39.5869 76.5647 44.8854 77.3775C49.6034 78.1051 52.9049 75.2488 53.5589 71.0301C53.8066 69.4007 53.4467 65.9251 53.795 63.6687C54.2479 60.7349 55.289 58.6797 55.498 57.3561C56.0398 53.8186 52.959 50.2462 46.8361 49.3057C44.7809 48.9883 43.6353 49.0193 42.4007 48.818C36.03 47.7924 32.0436 41.3095 33.584 35.0434C35.643 26.6563 44.6726 21.3694 51.5812 22.4337C56.303 23.1614 59.6625 26.1299 60.6417 29.741C61.6016 33.2669 60.1347 37.0095 61.5551 42.0062C62.0273 43.6627 62.6543 44.5142 63.3161 45.1335C62.9794 45.474 61.7719 47.0338 61.3926 47.6415C59.9799 49.9017 59.4535 52.0846 59.4535 52.0846L59.7825 52.3362C59.7825 52.3362 60.7153 51.2061 60.7617 51.1635C64.8295 47.4325 71.2156 45.447 77.3617 46.3913C81.3018 46.999 83.0279 48.4155 85.1528 48.7445C88.4155 49.2477 91.5505 47.0919 92.3401 41.9675C92.6148 40.1832 92.4639 37.6404 92.3052 35.4498C92.1698 33.592 91.9259 32.2103 92.2356 30.2132C93.1838 24.067 99.001 21.35 106.331 22.4763C123.744 25.1546 141.699 44.5839 139.779 57.0465L139.783 57.0542Z" fill="black"/>
<style>
path.dynamic { fill: #000000; }@media (prefers-color-scheme: dark) {path.dynamic { fill: #FFFFFF; }}
</style>
</svg>