<svg width="1013" height="162" viewBox="0 0 1013 162" fill="none" xmlns="http://www.w3.org/2000/svg">
<path class="dynamic" d="M253.06 127.504L232.861 96.0691L214.535 127.504H193.399L222.829 80.4174L193 34.1355H214.539L234.738 65.439L252.929 34.1355H274.065L244.77 81.0869L274.599 127.504H253.06Z" fill="black"/>
<path class="dynamic" d="M344.761 39.8868C352.208 43.7224 357.959 49.1835 362.015 56.274C366.071 63.3645 368.103 71.5929 368.103 80.9553C368.103 90.3178 366.075 98.5036 362.015 105.501C357.955 112.503 352.204 117.921 344.761 121.753C337.315 125.588 328.688 127.504 318.876 127.504H286.237V34.1355H318.876C328.684 34.1355 337.315 36.0552 344.761 39.8868ZM340.949 103.562C346.302 98.2094 348.976 90.6777 348.976 80.9553C348.976 71.233 346.302 63.6316 340.949 58.1472C335.6 52.6629 328.018 49.9227 318.207 49.9227H304.962V111.589H318.207C328.014 111.589 335.596 108.915 340.949 103.562Z" fill="black"/>
<path class="dynamic" d="M398.198 49.2493V72.6573H429.634V87.5079H398.198V112.255H433.647V127.504H379.47V34H433.647V49.2493H398.198Z" fill="black"/>
<path class="dynamic" d="M478.838 125.141C473.687 122.945 469.612 119.77 466.622 115.633C463.623 111.496 462.088 106.61 462 100.973H481.811C482.075 104.757 483.416 107.756 485.842 109.953C488.258 112.158 491.584 113.251 495.809 113.251C500.034 113.251 503.509 112.219 505.979 110.147C508.439 108.083 509.674 105.375 509.674 102.023C509.674 99.2975 508.836 97.0483 507.169 95.2842C505.493 93.5201 503.403 92.1353 500.898 91.121C498.393 90.1066 494.935 88.9864 490.534 87.7516C484.545 85.9963 479.685 84.2499 475.945 82.5387C472.205 80.8187 468.986 78.2255 466.304 74.7503C463.614 71.275 462.273 66.6267 462.273 60.814C462.273 55.3542 463.641 50.6 466.366 46.5514C469.092 42.5029 472.92 39.3981 477.859 37.2371C482.79 35.0849 488.426 34 494.759 34C504.267 34 511.994 36.3109 517.939 40.9328C523.884 45.5547 527.156 52.0024 527.774 60.2848H507.434C507.258 57.1183 505.917 54.4986 503.403 52.4258C500.898 50.3618 497.573 49.321 493.436 49.321C489.828 49.321 486.944 50.2472 484.783 52.0995C482.622 53.9429 481.546 56.6332 481.546 60.1525C481.546 62.6134 482.357 64.6685 483.989 66.2915C485.621 67.9233 487.641 69.2375 490.067 70.2519C492.483 71.2662 495.897 72.4305 500.298 73.7536C506.287 75.5177 511.174 77.2729 514.958 79.037C518.742 80.8011 521.996 83.4384 524.731 86.9577C527.456 90.4771 528.823 95.099 528.823 100.823C528.823 105.754 527.544 110.332 524.995 114.557C522.437 118.782 518.698 122.151 513.767 124.656C508.836 127.161 502.98 128.422 496.206 128.422C489.775 128.422 483.989 127.32 478.838 125.124V125.141Z" fill="black"/>
<path class="dynamic" d="M607.529 35.3406V50.2647H582.965V127.523H564.477V50.2647H539.912V35.3406H607.529Z" fill="black"/>
<path class="dynamic" d="M639.22 35.3406V92.391C639.22 98.6447 640.852 103.417 644.107 106.715C647.361 110.014 651.939 111.664 657.84 111.664C663.741 111.664 668.451 110.014 671.706 106.715C674.96 103.417 676.592 98.6358 676.592 92.391V35.3406H695.212V92.2587C695.212 100.091 693.518 106.715 690.131 112.131C686.744 117.547 682.211 121.622 676.53 124.347C670.85 127.073 664.535 128.44 657.575 128.44C650.616 128.44 644.477 127.073 638.885 124.347C633.293 121.622 628.865 117.547 625.61 112.131C622.355 106.715 620.724 100.091 620.724 92.2587V35.3406H639.211H639.22Z" fill="black"/>
<path class="dynamic" d="M770.82 41.0122C778.167 44.7962 783.847 50.1943 787.852 57.1889C791.856 64.1835 793.858 72.3071 793.858 81.5508C793.858 90.7946 791.856 98.8741 787.852 105.781C783.847 112.696 778.167 118.041 770.82 121.825C763.472 125.609 754.952 127.505 745.267 127.505H713.046V35.3231H745.267C754.952 35.3231 763.472 37.2195 770.82 41.0034V41.0122ZM767.053 103.875C772.337 98.5919 774.974 91.1562 774.974 81.5596C774.974 71.963 772.337 64.4569 767.053 59.0411C761.77 53.6254 754.29 50.9176 744.605 50.9176H731.533V111.796H744.605C754.29 111.796 761.77 109.159 767.053 103.875Z" fill="black"/>
<path class="dynamic" d="M826.221 35.3406V127.523H807.733V35.3406H826.221Z" fill="black"/>
<path class="dynamic" d="M863.461 122.363C856.238 118.314 850.522 112.704 846.297 105.525C842.072 98.3536 839.955 90.23 839.955 81.1626C839.955 72.0952 842.072 64.1039 846.297 56.9329C850.522 49.762 856.246 44.1434 863.461 40.0948C870.677 36.0462 878.606 34.0175 887.232 34.0175C895.859 34.0175 903.894 36.0462 911.074 40.0948C918.245 44.1434 923.925 49.7531 928.106 56.9329C932.287 64.1128 934.378 72.1834 934.378 81.1626C934.378 90.1418 932.287 98.3536 928.106 105.525C923.925 112.704 918.219 118.314 911.003 122.363C903.78 126.411 895.859 128.44 887.232 128.44C878.606 128.44 870.677 126.42 863.461 122.363ZM901.892 108.171C906.117 105.666 909.416 102.076 911.797 97.4098C914.17 92.7438 915.361 87.3281 915.361 81.1626C915.361 74.9971 914.17 69.6079 911.797 64.986C909.416 60.3641 906.117 56.8183 901.892 54.3574C897.667 51.8965 892.78 50.6616 887.232 50.6616C881.684 50.6616 876.78 51.8965 872.511 54.3574C868.242 56.8271 864.917 60.3641 862.544 64.986C860.171 69.6079 858.981 75.006 858.981 81.1626C858.981 87.3192 860.171 92.7438 862.544 97.4098C864.917 102.076 868.242 105.666 872.511 108.171C876.78 110.685 881.693 111.937 887.232 111.937C892.772 111.937 897.667 110.685 901.892 108.171Z" fill="black"/>
<path class="dynamic" d="M962.575 125.141C957.424 122.945 953.349 119.77 950.359 115.633C947.36 111.496 945.826 106.61 945.737 100.973H965.548C965.813 104.757 967.153 107.756 969.579 109.953C971.996 112.158 975.321 113.251 979.546 113.251C983.771 113.251 987.246 112.219 989.716 110.147C992.177 108.083 993.412 105.375 993.412 102.023C993.412 99.2975 992.574 97.0483 990.907 95.2842C989.231 93.5201 987.14 92.1353 984.635 91.121C982.13 90.1066 978.673 88.9864 974.271 87.7516C968.282 85.9963 963.422 84.2499 959.682 82.5387C955.943 80.8187 952.723 78.2255 950.042 74.7503C947.351 71.275 946.011 66.6267 946.011 60.814C946.011 55.3542 947.378 50.6 950.103 46.5514C952.829 42.5029 956.657 39.3981 961.596 37.2371C966.527 35.0849 972.163 34 978.496 34C988.005 34 995.731 36.3109 1001.68 40.9328C1007.62 45.5547 1010.89 52.0024 1011.51 60.2848H991.171C990.995 57.1183 989.654 54.4986 987.14 52.4258C984.635 50.3618 981.31 49.321 977.173 49.321C973.566 49.321 970.681 50.2472 968.52 52.0995C966.359 53.9429 965.283 56.6332 965.283 60.1525C965.283 62.6134 966.095 64.6685 967.727 66.2915C969.358 67.9233 971.378 69.2375 973.804 70.2519C976.221 71.2662 979.634 72.4305 984.036 73.7536C990.025 75.5177 994.911 77.2729 998.695 79.037C1002.48 80.8011 1005.73 83.4384 1008.47 86.9577C1011.19 90.4771 1012.56 95.099 1012.56 100.823C1012.56 105.754 1011.28 110.332 1008.73 114.557C1006.17 118.782 1002.43 122.151 997.504 124.656C992.574 127.161 986.717 128.422 979.943 128.422C973.513 128.422 967.727 127.32 962.575 125.124V125.141Z" fill="black"/>
<path class="dynamic" d="M84.2084 0.0823472C39.7417 -1.91089 2.0714 32.5238 0.0820357 76.9982C-1.90734 121.469 32.5273 159.135 76.9979 161.125C121.468 163.122 159.135 128.687 161.132 84.2087C163.121 39.742 128.687 2.07559 84.2084 0.0823472ZM139.783 57.0542C138.87 62.9952 133.436 66.2076 125.188 64.9304C122.08 64.4582 117.323 62.763 114.184 61.5438C111.297 60.4137 104.969 57.3135 100.375 57.3135C94.3178 57.3135 90.5984 59.3145 87.8078 62.9681L88.013 63.4945C87.9046 63.5332 89.6385 62.5772 91.0125 62.2018C93.358 61.5632 94.5539 61.5748 94.8829 61.6986C95.239 61.8302 95.4054 62.2095 95.3048 62.5772C95.0764 63.4093 95.0532 64.315 95.0416 65.2555C95.0184 66.9159 94.8674 68.3944 94.6003 70.1438C94.3526 71.75 93.8843 73.333 93.3463 74.6295C92.7271 76.1467 91.9259 77.0214 91.6047 79.1192C91.268 81.3021 92.0691 83.4037 93.4818 84.9518C94.8597 86.4651 96.64 87.1347 99.388 87.5604C107.686 88.8338 115.644 86.7748 122.641 87.8546C134.14 89.6272 140.139 97.577 138.417 108.782C135.41 128.281 106.366 149.448 83.5388 145.93C71.8774 144.13 66.2383 135.762 67.8484 125.32C68.8934 118.562 72.0245 114.583 75.5581 108.654C80.3032 100.696 81.7004 94.5465 79.5369 86.8754L78.8557 87.1115C78.8557 87.1115 78.9021 89.1628 78.3216 91.7134C77.7023 94.4342 76.6031 95.3012 76.6031 95.3012C74.8266 90.3974 70.6157 86.0355 63.9354 86.0355C56.1211 86.0355 49.0848 91.3225 47.6605 100.604C46.4181 108.642 39.9739 116.143 31.1069 114.777C20.2157 113.097 13.2955 99.3341 15.1494 87.2624C16.7904 76.6228 24.4576 71.0843 31.4901 72.168C36.6919 72.9692 39.5869 76.5647 44.8854 77.3775C49.6034 78.1051 52.9049 75.2488 53.5589 71.0301C53.8066 69.4007 53.4467 65.9251 53.795 63.6687C54.2479 60.7349 55.289 58.6797 55.498 57.3561C56.0398 53.8186 52.959 50.2462 46.8361 49.3057C44.7809 48.9883 43.6353 49.0193 42.4007 48.818C36.03 47.7924 32.0436 41.3095 33.584 35.0434C35.643 26.6563 44.6726 21.3694 51.5812 22.4337C56.303 23.1614 59.6625 26.1299 60.6417 29.741C61.6016 33.2669 60.1347 37.0095 61.5551 42.0062C62.0273 43.6627 62.6543 44.5142 63.3161 45.1335C62.9794 45.474 61.7719 47.0338 61.3926 47.6414C59.9799 49.9017 59.4535 52.0846 59.4535 52.0846L59.7825 52.3362C59.7825 52.3362 60.7153 51.2061 60.7617 51.1635C64.8295 47.4325 71.2156 45.447 77.3617 46.3913C81.3018 46.999 83.0279 48.4155 85.1528 48.7445C88.4155 49.2477 91.5505 47.0919 92.34 41.9675C92.6148 40.1833 92.4639 37.6404 92.3052 35.4498C92.1698 33.592 91.9259 32.2103 92.2355 30.2132C93.1838 24.067 99.001 21.35 106.331 22.4763C123.744 25.1546 141.699 44.5839 139.779 57.0465L139.783 57.0542Z" fill="black"/>
<style>
path.dynamic { fill: #000000; }@media (prefers-color-scheme: dark) {path.dynamic { fill: #FFFFFF; }}
</style>
</svg>
